<svg width="32" height="32" viewBox="0 0 32 32" fill="none" xmlns="http://www.w3.org/2000/svg">
<path d="M23.3885 16.9181C24.0244 16.9181 24.6343 16.6654 25.084 16.2158C25.5337 15.7661 25.7863 15.1562 25.7863 14.5202C25.7863 13.8843 25.5337 13.2744 25.084 12.8247C24.6343 12.375 24.0244 12.1224 23.3885 12.1224C22.7525 12.1224 22.1426 12.375 21.6929 12.8247C21.2433 13.2744 20.9906 13.8843 20.9906 14.5202C20.9906 15.1562 21.2433 15.7661 21.6929 16.2158C22.1426 16.6654 22.7525 16.9181 23.3885 16.9181ZM23.3885 16.1188C22.9645 16.1188 22.5579 15.9504 22.2581 15.6506C21.9583 15.3508 21.7899 14.9442 21.7899 14.5202C21.7899 14.0962 21.9583 13.6896 22.2581 13.3899C22.5579 13.0901 22.9645 12.9216 23.3885 12.9216C23.8124 12.9216 24.219 13.0901 24.5188 13.3899C24.8186 13.6896 24.987 14.0962 24.987 14.5202C24.987 14.9442 24.8186 15.3508 24.5188 15.6506C24.219 15.9504 23.8124 16.1188 23.3885 16.1188ZM17.3938 8.72539C17.3938 9.20236 17.2044 9.65978 16.8671 9.99705C16.5298 10.3343 16.0724 10.5238 15.5954 10.5238C15.1185 10.5238 14.6611 10.3343 14.3238 9.99705C13.9865 9.65978 13.7971 9.20236 13.7971 8.72539C13.7971 8.24843 13.9865 7.791 14.3238 7.45374C14.6611 7.11648 15.1185 6.927 15.5954 6.927C16.0724 6.927 16.5298 7.11648 16.8671 7.45374C17.2044 7.791 17.3938 8.24843 17.3938 8.72539ZM12.5981 11.9225C12.5981 12.1587 12.5516 12.3926 12.4612 12.6108C12.3709 12.8289 12.2384 13.0272 12.0714 13.1942C11.9044 13.3612 11.7061 13.4937 11.488 13.584C11.2698 13.6744 11.0359 13.7209 10.7997 13.7209C10.5636 13.7209 10.3297 13.6744 10.1115 13.584C9.89333 13.4937 9.69508 13.3612 9.52808 13.1942C9.36108 13.0272 9.22861 12.8289 9.13824 12.6108C9.04786 12.3926 9.00134 12.1587 9.00134 11.9225C9.00134 11.4456 9.19082 10.9881 9.52808 10.6509C9.86534 10.3136 10.3228 10.1241 10.7997 10.1241C11.2767 10.1241 11.7341 10.3136 12.0714 10.6509C12.4087 10.9881 12.5981 11.4456 12.5981 11.9225ZM10.7997 19.3159C11.0359 19.3159 11.2698 19.2694 11.488 19.179C11.7061 19.0887 11.9044 18.9562 12.0714 18.7892C12.2384 18.6222 12.3709 18.4239 12.4612 18.2057C12.5516 17.9876 12.5981 17.7537 12.5981 17.5175C12.5981 17.2814 12.5516 17.0475 12.4612 16.8293C12.3709 16.6111 12.2384 16.4129 12.0714 16.2459C11.9044 16.0789 11.7061 15.9464 11.488 15.856C11.2698 15.7657 11.0359 15.7191 10.7997 15.7191C10.3228 15.7191 9.86534 15.9086 9.52808 16.2459C9.19082 16.5831 9.00134 17.0406 9.00134 17.5175C9.00134 17.9945 9.19082 18.4519 9.52808 18.7892C9.86534 19.1265 10.3228 19.3159 10.7997 19.3159ZM16.9942 21.1143C16.9942 21.5913 16.8047 22.0487 16.4675 22.386C16.1302 22.7232 15.6728 22.9127 15.1958 22.9127C14.7188 22.9127 14.2614 22.7232 13.9241 22.386C13.5869 22.0487 13.3974 21.5913 13.3974 21.1143C13.3974 20.6374 13.5869 20.1799 13.9241 19.8427C14.2614 19.5054 14.7188 19.3159 15.1958 19.3159C15.6728 19.3159 16.1302 19.5054 16.4675 19.8427C16.8047 20.1799 16.9942 20.6374 16.9942 21.1143Z" fill="black"/>
<path d="M17.1541 26.5095C14.9228 26.3466 12.7681 25.626 10.8877 24.4138C8.13943 22.8038 6.14219 20.1693 5.33423 17.0884C4.98599 15.747 4.90892 14.3497 5.10751 12.9782C5.30611 11.6067 5.77639 10.2886 6.4908 9.1011C9.49371 4.14553 16.2253 2.68044 22.1472 5.69934C25.6792 7.50173 28.3209 10.6477 28.8756 13.7162C29.0599 14.5628 29.0392 15.4413 28.815 16.2783C28.5909 17.1153 28.1699 17.8866 27.5871 18.5279C25.8623 20.411 23.6363 20.3846 22.0185 20.3662H22.0129C20.9379 20.347 20.2665 20.3662 20.1058 20.6859C20.1618 20.9321 20.2593 21.1687 20.3936 21.3837C20.7972 21.9514 21 22.6376 20.9697 23.3335C20.9395 24.0294 20.6779 24.6954 20.2265 25.2259C19.8475 25.6616 19.3731 26.0041 18.8403 26.2267C18.3074 26.4493 17.7304 26.5461 17.1541 26.5095ZM15.8185 5.72812C14.241 5.67452 12.6769 6.03342 11.2806 6.76934C9.88428 7.50527 8.70415 8.59275 7.85677 9.92436C7.25215 10.9317 6.85462 12.0495 6.68745 13.2124C6.52028 14.3753 6.58685 15.5599 6.88324 16.6967C7.58607 19.3657 9.31957 21.6465 11.7029 23.0382C14.3813 24.6272 17.8047 25.6759 18.9852 24.2156C19.6143 23.4419 19.4144 22.9647 18.9756 22.1199C18.7493 21.8138 18.6035 21.4559 18.5515 21.0788C18.4995 20.7017 18.5431 20.3176 18.6783 19.9618C19.3025 18.7309 20.6909 18.7445 22.0353 18.7629C23.502 18.7828 25.1661 18.8028 26.409 17.4448C26.8197 16.9815 27.1149 16.4275 27.2705 15.8282C27.4261 15.2289 27.4376 14.6013 27.3042 13.9967C26.8422 11.439 24.4779 8.67908 21.423 7.12287C19.6912 6.22402 17.7712 5.74747 15.8201 5.73211L15.8185 5.72812Z" fill="black"/>
</svg>
