<svg width="32" height="32" viewBox="0 0 32 32" fill="none" xmlns="http://www.w3.org/2000/svg">
<path fill-rule="evenodd" clip-rule="evenodd" d="M15.6858 2.99589C13.0237 2.95789 10.3398 3.70031 8.0003 5.26341C2.65291 8.83651 0.564534 15.7221 3.02568 21.6638C5.4868 27.6054 11.8294 30.9947 18.137 29.74C24.4446 28.4853 29.0081 22.9252 29.0081 16.4939H29.0021V14.9939H17.0021V18.9939H20.0021H23.0021H24.8224C23.8934 22.4755 21.0645 25.2229 17.3849 25.9548C12.8595 26.8549 8.35572 24.448 6.58999 20.1853C4.82425 15.9224 6.30627 11.0358 10.1427 8.4724C13.9792 5.909 19.0598 6.41097 22.3224 9.67357L25.0529 6.94505C22.7791 4.67125 19.8507 3.35839 16.8244 3.06029C16.4461 3.02329 16.066 3.00132 15.6857 2.99632L15.6858 2.99589Z" fill="white"/>
<path fill-rule="evenodd" clip-rule="evenodd" d="M6.30463 19.4025L3.09955 21.8204C5.60763 27.6624 11.886 30.9838 18.1367 29.7404C21.0259 29.1657 23.5413 27.6804 25.4277 25.6291L22.4062 23.2131C21.0826 24.5731 19.3634 25.5617 17.3847 25.9553C12.8593 26.8554 8.3555 24.4484 6.58978 20.1857C6.4826 19.927 6.38806 19.6652 6.30463 19.4025V19.4025Z" fill="white"/>
<path fill-rule="evenodd" clip-rule="evenodd" d="M4.49554 8.67188C1.87157 12.3749 1.20844 17.2766 3.02569 21.6638C3.06729 21.7642 3.15377 21.9628 3.15377 21.9628C4.50772 21.1811 5.50772 20.4944 6.45984 19.8466C6.41684 19.7322 6.37264 19.6117 6.34378 19.5247C5.3778 16.6167 5.8631 13.4944 7.52737 11.0574C5.50772 9.49437 5.50772 9.49437 4.49554 8.67188Z" fill="white"/>
<path fill-rule="evenodd" clip-rule="evenodd" d="M17.0018 14.9944V18.9944H20.0018H23.0018H24.8222C24.3927 20.6038 23.5439 22.0442 22.4061 23.2133L25.4276 25.6293C27.6595 23.2023 29.0077 19.9798 29.0077 16.4944H29.0017V14.9944H17.0017H17.0018Z" fill="white"/>
</svg>
