<svg width="32" height="32" viewBox="0 0 32 32" fill="none" xmlns="http://www.w3.org/2000/svg">
<path d="M29.9327 10.2348C29.8671 8.74657 29.6264 7.72342 29.2817 6.83684C28.926 5.89576 28.3788 5.05322 27.662 4.35281C26.9616 3.64149 26.1135 3.08877 25.1833 2.73867C24.2916 2.39392 23.2738 2.15325 21.7855 2.08763C20.2862 2.01646 19.8102 2 16.0074 2C12.2046 2 11.7286 2.01646 10.2348 2.08207C8.74657 2.14769 7.72342 2.38857 6.83706 2.73311C5.89576 3.08877 5.05322 3.63593 4.3528 4.35281C3.64149 5.05322 3.08898 5.90132 2.73867 6.8315C2.39392 7.72342 2.15325 8.74102 2.08763 10.2293C2.01646 11.7286 2 12.2046 2 16.0074C2 19.8102 2.01646 20.2862 2.08207 21.78C2.14769 23.2682 2.38857 24.2914 2.73333 25.178C3.08898 26.119 3.64149 26.9616 4.3528 27.662C5.05322 28.3733 5.90132 28.926 6.8315 29.2761C7.72342 29.6209 8.74101 29.8615 10.2295 29.9272C11.7231 29.993 12.1993 30.0092 16.002 30.0092C19.8048 30.0092 20.2808 29.993 21.7746 29.9272C23.2629 29.8615 24.286 29.6209 25.1724 29.2761C27.0548 28.5484 28.543 27.0601 29.2708 25.178C29.6153 24.286 29.8562 23.2682 29.9218 21.78C29.9874 20.2862 30.0039 19.8102 30.0039 16.0074C30.0039 12.2046 29.9983 11.7286 29.9327 10.2348ZM27.4104 21.6705C27.3501 23.0385 27.1204 23.7771 26.9289 24.2696C26.4582 25.4898 25.4898 26.4582 24.2696 26.9289C23.7771 27.1204 23.0331 27.3501 21.6705 27.4102C20.1932 27.476 19.7501 27.4923 16.0129 27.4923C12.2758 27.4923 11.8271 27.476 10.3551 27.4102C8.98724 27.3501 8.24857 27.1204 7.75612 26.9289C7.1489 26.7045 6.59618 26.3488 6.14754 25.8837C5.68245 25.4295 5.3268 24.8824 5.10238 24.2751C4.91087 23.7827 4.6811 23.0385 4.62104 21.6761C4.55521 20.1988 4.53897 19.7555 4.53897 16.0183C4.53897 12.2811 4.55521 11.8325 4.62104 10.3607C4.6811 8.9928 4.91087 8.25413 5.10238 7.76168C5.3268 7.15424 5.68245 6.60173 6.1531 6.15289C6.60708 5.6878 7.15424 5.33214 7.76168 5.10793C8.25412 4.91643 8.99835 4.68666 10.3607 4.62639C11.838 4.56077 12.2813 4.54431 16.0183 4.54431C19.761 4.54431 20.2041 4.56077 21.6761 4.62639C23.044 4.68666 23.7827 4.91643 24.2751 5.10793C24.8823 5.33214 25.4351 5.6878 25.8837 6.15289C26.3488 6.60708 26.7044 7.15424 26.9289 7.76168C27.1204 8.25413 27.3501 8.99814 27.4104 10.3607C27.476 11.8381 27.4925 12.2811 27.4925 16.0183C27.4925 19.7555 27.476 20.1932 27.4104 21.6705Z" fill="white"/>
<path d="M16.0074 8.81226C12.0352 8.81226 8.81223 12.035 8.81223 16.0075C8.81223 19.98 12.0352 23.2027 16.0074 23.2027C19.9799 23.2027 23.2026 19.98 23.2026 16.0075C23.2026 12.035 19.9799 8.81226 16.0074 8.81226ZM16.0074 20.6748C13.4304 20.6748 11.3401 18.5847 11.3401 16.0075C11.3401 13.4302 13.4304 11.3401 16.0074 11.3401C18.5847 11.3401 20.6748 13.4302 20.6748 16.0075C20.6748 18.5847 18.5847 20.6748 16.0074 20.6748Z" fill="white"/>
<path d="M25.167 8.52765C25.167 9.45526 24.4149 10.2074 23.4871 10.2074C22.5594 10.2074 21.8073 9.45526 21.8073 8.52765C21.8073 7.59982 22.5594 6.8479 23.4871 6.8479C24.4149 6.8479 25.167 7.59982 25.167 8.52765Z" fill="white"/>
</svg>
