<svg width="32" height="32" viewBox="0 0 32 32" fill="none" xmlns="http://www.w3.org/2000/svg">
<path fill-rule="evenodd" clip-rule="evenodd" d="M8.68003 25.5419L25 25.5419V26.25L8 26.25L8 5L25 5V5.7081L8.68003 5.7081L8.68003 25.5419Z" fill="black" stroke="black" stroke-miterlimit="10"/>
<path d="M14.4464 14.8464C14.2512 15.0417 14.2512 15.3582 14.4464 15.5535L17.6284 18.7355C17.8237 18.9307 18.1403 18.9307 18.3355 18.7355C18.5308 18.5402 18.5308 18.2236 18.3355 18.0284L15.5071 15.2L18.3355 12.3715C18.5308 12.1763 18.5308 11.8597 18.3355 11.6644C18.1403 11.4692 17.8237 11.4692 17.6284 11.6644L14.4464 14.8464ZM25 14.7L14.8 14.7V15.7L25 15.7V14.7Z" fill="black"/>
</svg>
