<svg width="91" height="87" viewBox="0 0 91 87" fill="none" xmlns="http://www.w3.org/2000/svg">
<path d="M3.05326 21.509H0.00163072C-0.0332135 18.6977 0.490654 15.9074 1.54287 13.2999C2.59509 10.6924 4.15472 8.31951 6.13138 6.31882C8.10803 4.31813 10.4624 2.72941 13.058 1.64474C15.6536 0.560065 18.4388 0.00101852 21.2522 1.39042e-06C24.0656 -0.00101574 26.8513 0.556016 29.4476 1.63881C32.044 2.72161 34.3995 4.30863 36.3777 6.30789C38.3558 8.30715 39.9171 10.6789 40.9712 13.2856C42.0253 15.8924 42.5512 18.6823 42.5184 21.4936H39.4668C39.4971 19.0843 39.0483 16.6931 38.1464 14.4585C37.2445 12.224 35.9076 10.1907 34.2131 8.47661C32.5186 6.76255 30.5003 5.40187 28.2754 4.47352C26.0505 3.54518 23.6633 3.06766 21.2522 3.06868C18.8412 3.0697 16.4543 3.54923 14.2302 4.47945C12.0061 5.40968 9.98898 6.77206 8.29595 8.48755C6.60291 10.203 5.26766 12.2375 4.36768 14.4728C3.46771 16.7081 3.02092 19.0997 3.05326 21.509V21.509Z" fill="#1A1A18"/>
<path d="M3.05634 21.4475H0.00470734V61.775H3.05634V21.4475Z" fill="#1A1A18"/>
<path d="M42.5184 21.4506H39.4668V61.778H42.5184V21.4506Z" fill="#1A1A18"/>
<path d="M51.5103 21.4998H48.4555C48.5204 15.9097 50.7874 10.5703 54.7651 6.63935C58.7428 2.70836 64.1106 0.502551 69.7048 0.500124C75.299 0.497697 80.6688 2.69885 84.6499 6.62638C88.631 10.5539 90.9026 15.8913 90.9723 21.4814H87.9207C87.9182 16.6562 85.9978 12.0297 82.582 8.61955C79.1661 5.2094 74.5346 3.29497 69.7062 3.29742C64.8779 3.29986 60.2483 5.21898 56.8359 8.63259C53.4235 12.0462 51.5078 16.6747 51.5103 21.4998V21.4998Z" fill="#1A1A18"/>
<path d="M90.9723 21.4291H87.9207V61.7811H90.9723V21.4291Z" fill="#1A1A18"/>
<path d="M51.5072 21.4352H48.4555V61.778H51.5072V21.4352Z" fill="#1A1A18"/>
<path d="M22.7658 77.0046C22.0514 77.0046 21.353 76.7929 20.7591 76.3962C20.1651 75.9994 19.7022 75.4356 19.4289 74.7759C19.1557 74.1163 19.0843 73.3904 19.224 72.6903C19.3636 71.9901 19.7078 71.347 20.2132 70.8424C20.7186 70.3378 21.3624 69.9943 22.0632 69.8554C22.7639 69.7164 23.4902 69.7884 24.15 70.062C24.8099 70.3356 25.3737 70.7987 25.7702 71.3926C26.1667 71.9865 26.378 72.6846 26.3773 73.3986C26.3765 74.3552 25.9957 75.2724 25.3185 75.9486C24.6413 76.6248 23.7231 77.0046 22.7658 77.0046V77.0046ZM22.7658 70.5488C22.1994 70.5488 21.6457 70.7166 21.1747 71.0311C20.7037 71.3456 20.3366 71.7926 20.1199 72.3156C19.9031 72.8386 19.8464 73.414 19.9569 73.9692C20.0674 74.5244 20.3402 75.0344 20.7407 75.4347C21.1412 75.8349 21.6515 76.1075 22.2071 76.218C22.7627 76.3284 23.3385 76.2717 23.8618 76.0551C24.3852 75.8385 24.8325 75.4716 25.1472 75.001C25.4619 74.5303 25.6298 73.9769 25.6298 73.4109C25.631 73.0341 25.5579 72.6608 25.4145 72.3123C25.2712 71.9638 25.0605 71.647 24.7944 71.38C24.5284 71.113 24.2123 70.9011 23.8642 70.7563C23.5161 70.6116 23.1429 70.5369 22.7658 70.5365V70.5488Z" fill="#1A1A18"/>
<path d="M39.3899 77.0077H34.4156V69.7894H35.1569V76.2668H39.3899V77.0077Z" fill="#1A1A18"/>
<path d="M0.140055 72.4455V72.4179C0.122875 72.064 0.177777 71.7104 0.301431 71.3784C0.425085 71.0465 0.614915 70.743 0.859413 70.4866C1.10391 70.2301 1.39798 70.0259 1.7238 69.8864C2.04962 69.7469 2.40039 69.6749 2.75486 69.6749C3.10933 69.6749 3.46011 69.7469 3.78592 69.8864C4.11174 70.0259 4.40581 70.2301 4.65031 70.4866C4.89481 70.743 5.08464 71.0465 5.20829 71.3784C5.33195 71.7104 5.38685 72.064 5.36967 72.4179H4.61599C4.62621 72.1662 4.58544 71.9151 4.49612 71.6796C4.40681 71.4442 4.2708 71.2291 4.09626 71.0475C3.92172 70.8658 3.71224 70.7213 3.48041 70.6226C3.24858 70.5239 2.99917 70.473 2.74717 70.473C2.49517 70.473 2.24576 70.5239 2.01393 70.6226C1.7821 70.7213 1.57263 70.8658 1.39808 71.0475C1.22354 71.2291 1.08753 71.4442 0.998218 71.6796C0.908906 71.9151 0.868135 72.1662 0.878353 72.4179L0.140055 72.4455Z" fill="#1A1A18"/>
<path d="M0.887588 72.4117H0.14006V76.9831H0.887588V72.4117Z" fill="#1A1A18"/>
<path d="M5.37275 72.4117H4.62522V76.9831H5.37275V72.4117Z" fill="#1A1A18"/>
<path d="M10.7869 72.4517L10.4116 72.4302C10.4219 72.1785 10.3811 71.9274 10.2918 71.6919C10.2025 71.4564 10.0665 71.2414 9.89192 71.0598C9.71737 70.8781 9.5079 70.7336 9.27607 70.6349C9.04424 70.5361 8.79483 70.4852 8.54283 70.4852C8.29083 70.4852 8.04142 70.5361 7.80959 70.6349C7.57776 70.7336 7.36828 70.8781 7.19374 71.0598C7.0192 71.2414 6.88319 71.4564 6.79388 71.6919C6.70456 71.9274 6.66379 72.1785 6.67401 72.4302H5.92648C5.95907 71.759 6.24878 71.1262 6.73558 70.6628C7.22238 70.1993 7.86895 69.9408 8.54129 69.9408C9.21363 69.9408 9.8602 70.1993 10.347 70.6628C10.8338 71.1262 11.1235 71.759 11.1561 72.4302L10.7869 72.4517Z" fill="#1A1A18"/>
<path d="M11.1592 72.4241H10.4116V76.9954H11.1592V72.4241Z" fill="#1A1A18"/>
<path d="M6.67401 72.4241H5.92648V76.9954H6.67401V72.4241Z" fill="#1A1A18"/>
<path d="M65.338 77.0108H60.3237V69.7679H61.0681V76.2668H65.338V77.0108Z" fill="#1A1A18"/>
<path d="M65.3195 72.9989H60.6836V73.7429H65.3195V72.9989Z" fill="#1A1A18"/>
<path d="M65.3195 69.7679H60.6836V70.5119H65.3195V69.7679Z" fill="#1A1A18"/>
<path d="M90.8923 69.7679H85.8811V70.5181H90.8923V69.7679Z" fill="#1A1A18"/>
<path d="M88.7605 69.8325H88.0099V76.9954H88.7605V69.8325Z" fill="#1A1A18"/>
<path d="M8.99305 82.1765L5.8922 82.1814L5.89337 82.9223L8.99421 82.9174L8.99305 82.1765Z" fill="#1A1A18"/>
<path fill-rule="evenodd" clip-rule="evenodd" d="M8.449 81.5697C8.3299 81.1937 8.13076 80.8478 7.86525 80.556C7.59975 80.2641 7.27417 80.0331 6.91088 79.8789C6.75458 79.8096 6.59176 79.7561 6.42483 79.7191C6.21394 79.6702 5.99836 79.6445 5.7819 79.6422C5.03041 79.6446 4.3104 79.9441 3.77902 80.4751C3.24764 81.0061 2.94803 81.7256 2.9456 82.4766V82.4766C2.94177 83.2276 3.23603 83.9495 3.76388 84.4841V84.4841C4.29509 85.0149 5.01532 85.3134 5.76651 85.3141V85.3141C6.52013 85.3149 7.2433 85.017 7.77734 84.4856C8.31138 83.9542 8.61267 83.2328 8.61512 82.4797V82.4797V82.1723H9.35649V82.4797C9.35609 82.9497 9.26294 83.4151 9.08239 83.8491C8.90184 84.2831 8.63742 84.6773 8.30427 85.0091C7.97111 85.3409 7.57576 85.6038 7.14083 85.7827C6.7059 85.9617 6.23993 86.0532 5.76959 86.0519V86.0519C5.30019 86.0526 4.83532 85.9603 4.40182 85.7803C3.96833 85.6004 3.57481 85.3364 3.24399 85.0036V85.0036C2.57433 84.3329 2.19819 83.4241 2.19807 82.4766V82.4766C2.1997 81.53 2.57693 80.6227 3.24703 79.9536C3.91713 79.2845 4.82541 78.9083 5.77267 78.9075V78.9075C6.04483 78.9071 6.31618 78.937 6.58172 78.9966C6.79222 79.0466 6.99805 79.1145 7.19697 79.1995C7.6955 79.4117 8.13833 79.7359 8.49101 80.147C8.84368 80.5581 9.0967 81.045 9.23036 81.5697H8.449Z" fill="#1A1A18"/>
<path d="M50.5782 73.2633V72.5378C50.849 72.5378 51.1088 72.4302 51.3003 72.2388C51.4919 72.0474 51.5995 71.7878 51.5995 71.5171C51.5995 71.2464 51.4919 70.9868 51.3003 70.7954C51.1088 70.604 50.849 70.4965 50.5782 70.4965V69.7679C50.814 69.758 51.0494 69.7959 51.2702 69.8793C51.491 69.9626 51.6926 70.0898 51.863 70.253C52.0334 70.4163 52.1689 70.6123 52.2616 70.8293C52.3542 71.0462 52.4019 71.2797 52.4019 71.5156C52.4019 71.7515 52.3542 71.9849 52.2616 72.2019C52.1689 72.4188 52.0334 72.6149 51.863 72.7781C51.6926 72.9414 51.491 73.0685 51.2702 73.1519C51.0494 73.2353 50.814 73.2732 50.5782 73.2633V73.2633Z" fill="#1A1A18"/>
<path d="M50.5782 69.7679H47.6988V70.4935H50.5782V69.7679Z" fill="#1A1A18"/>
<path d="M50.5782 72.5377H47.6988V73.2632H50.5782V72.5377Z" fill="#1A1A18"/>
<path d="M48.0741 69.771H47.3327V77.0015H48.0741V69.771Z" fill="#1A1A18"/>
<path d="M50.5782 77.0047V76.2822C50.716 76.2898 50.8539 76.2692 50.9835 76.2218C51.113 76.1743 51.2316 76.1009 51.3318 76.0061C51.4321 75.9113 51.5119 75.7971 51.5665 75.6704C51.621 75.5437 51.6492 75.4072 51.6492 75.2693C51.6492 75.1313 51.621 74.9949 51.5665 74.8682C51.5119 74.7415 51.4321 74.6273 51.3318 74.5324C51.2316 74.4376 51.113 74.3643 50.9835 74.3168C50.8539 74.2693 50.716 74.2487 50.5782 74.2563V73.5339C50.8124 73.524 51.0461 73.5616 51.2654 73.6444C51.4847 73.7272 51.6849 73.8534 51.8541 74.0155C52.0233 74.1776 52.158 74.3723 52.25 74.5877C52.3419 74.8032 52.3893 75.035 52.3893 75.2693C52.3893 75.5035 52.3419 75.7353 52.25 75.9508C52.158 76.1663 52.0233 76.3609 51.8541 76.523C51.6849 76.6851 51.4847 76.8114 51.2654 76.8942C51.0461 76.9769 50.8124 77.0145 50.5782 77.0047V77.0047Z" fill="#1A1A18"/>
<path d="M50.5782 73.5338H47.6988V74.2562H50.5782V73.5338Z" fill="#1A1A18"/>
<path d="M50.5782 76.2822H47.6988V77.0047H50.5782V76.2822Z" fill="#1A1A18"/>
<path d="M39.3776 86.0704H34.4063V78.8522H35.1477V85.3295H39.3776V86.0704Z" fill="#1A1A18"/>
<path d="M24.5101 81.4744V81.4529C24.5101 80.9613 24.3146 80.4898 23.9668 80.1421C23.6189 79.7945 23.1471 79.5992 22.6551 79.5992C22.1631 79.5992 21.6913 79.7945 21.3434 80.1421C20.9956 80.4898 20.8001 80.9613 20.8001 81.4529H20.0587C20.0587 80.7648 20.3323 80.1048 20.8192 79.6182C21.3061 79.1316 21.9665 78.8583 22.6551 78.8583C23.3437 78.8583 24.0041 79.1316 24.491 79.6182C24.9779 80.1048 25.2514 80.7648 25.2514 81.4529L24.5101 81.4744Z" fill="#1A1A18"/>
<path d="M25.2514 81.4498H24.5101V85.9874H25.2514V81.4498Z" fill="#1A1A18"/>
<path d="M20.8001 81.4498H20.0587V85.9874H20.8001V81.4498Z" fill="#1A1A18"/>
<path d="M24.5865 82.1644L20.6674 82.1705L20.6686 82.936L24.5877 82.9299L24.5865 82.1644Z" fill="#1A1A18"/>
<path d="M52.3378 86.0704H47.3666V78.8522H48.1079V85.3295H52.3378V86.0704Z" fill="#1A1A18"/>
<path d="M65.3349 86.0705H60.3206V78.8307H61.0651V85.3265H65.3349V86.0705Z" fill="#1A1A18"/>
<path d="M65.3164 82.0616H60.6805V82.8056H65.3164V82.0616Z" fill="#1A1A18"/>
<path d="M65.3164 78.8307H60.6805V79.5746H65.3164V78.8307Z" fill="#1A1A18"/>
<path d="M76.4371 73.2633V72.5378C76.7079 72.5378 76.9677 72.4302 77.1592 72.2388C77.3508 72.0474 77.4584 71.7878 77.4584 71.5171C77.4584 71.2464 77.3508 70.9868 77.1592 70.7954C76.9677 70.604 76.7079 70.4965 76.4371 70.4965V69.7679C76.6729 69.758 76.9083 69.7959 77.1291 69.8793C77.3499 69.9626 77.5515 70.0898 77.7219 70.253C77.8923 70.4163 78.0278 70.6123 78.1205 70.8293C78.2131 71.0462 78.2608 71.2797 78.2608 71.5156C78.2608 71.7515 78.2131 71.9849 78.1205 72.2019C78.0278 72.4188 77.8923 72.6149 77.7219 72.7781C77.5515 72.9414 77.3499 73.0685 77.1291 73.1519C76.9083 73.2353 76.6729 73.2732 76.4371 73.2633V73.2633Z" fill="#1A1A18"/>
<path d="M76.4401 69.7679H73.5608V70.4935H76.4401V69.7679Z" fill="#1A1A18"/>
<path d="M76.4401 72.5377H73.5608V73.2632H76.4401V72.5377Z" fill="#1A1A18"/>
<path d="M73.933 69.771H73.1916V77.0107H73.933V69.771Z" fill="#1A1A18"/>
<path d="M78.209 76.9984H77.4861V75.2123C77.4672 74.9489 77.3478 74.7029 77.1526 74.5249C76.9574 74.347 76.7012 74.2508 76.4371 74.2562V73.5338C76.8882 73.5291 77.3238 73.6984 77.6532 74.0064C77.9826 74.3145 78.1806 74.7376 78.2059 75.1877C78.209 75.2246 78.209 76.98 78.209 76.9984Z" fill="#1A1A18"/>
<path d="M76.4401 73.5338H73.5608V74.2562H76.4401V73.5338Z" fill="#1A1A18"/>
<path d="M76.4309 82.3322V81.5944C76.7018 81.5944 76.9615 81.4869 77.1531 81.2955C77.3446 81.1041 77.4522 80.8444 77.4522 80.5738C77.4522 80.3031 77.3446 80.0435 77.1531 79.8521C76.9615 79.6607 76.7018 79.5531 76.4309 79.5531V78.8245C76.6667 78.8146 76.9021 78.8525 77.1229 78.9359C77.3437 79.0193 77.5454 79.1464 77.7158 79.3097C77.8861 79.4729 78.0217 79.6689 78.1143 79.8859C78.2069 80.1029 78.2546 80.3363 78.2546 80.5722C78.2546 80.8081 78.2069 81.0416 78.1143 81.2585C78.0217 81.4755 77.8861 81.6715 77.7158 81.8348C77.5454 81.998 77.3437 82.1252 77.1229 82.2085C76.9021 82.2919 76.6667 82.3298 76.4309 82.3199V82.3322Z" fill="#1A1A18"/>
<path d="M76.4309 78.8246H73.5515V79.5501H76.4309V78.8246Z" fill="#1A1A18"/>
<path d="M76.4309 81.5944H73.5515V82.3199H76.4309V81.5944Z" fill="#1A1A18"/>
<path d="M73.9268 78.8276H73.1855V86.0705H73.9268V78.8276Z" fill="#1A1A18"/>
<path d="M78.2028 86.0551H77.4799V84.2689C77.461 84.0056 77.3417 83.7595 77.1464 83.5816C76.9512 83.4037 76.6951 83.3075 76.4309 83.3129V82.5904C76.882 82.5858 77.3176 82.7551 77.647 83.0631C77.9765 83.3711 78.1744 83.7942 78.1997 84.2444C78.2028 84.2812 78.2028 86.0366 78.2028 86.0551Z" fill="#1A1A18"/>
<path d="M76.4309 82.5905H73.5515V83.3129H76.4309V82.5905Z" fill="#1A1A18"/>
<path d="M88.5728 82.7903H88.1822V86.0489H88.5728V82.7903Z" fill="#1A1A18"/>
<path d="M88.4036 83.0423C87.7148 83.0415 87.0544 82.7674 86.5676 82.2804C86.0807 81.7933 85.8073 81.133 85.8073 80.4446H86.5487C86.5487 80.9362 86.7441 81.4077 87.092 81.7554C87.4399 82.103 87.9117 82.2983 88.4036 82.2983C88.8956 82.2983 89.3674 82.103 89.7153 81.7554C90.0632 81.4077 90.2586 80.9362 90.2586 80.4446L91 80.4261V80.4446C90.9992 81.1328 90.7255 81.7926 90.2388 82.2795C89.7522 82.7664 89.0923 83.0407 88.4036 83.0423V83.0423Z" fill="#1A1A18"/>
<path d="M91 78.8307H90.2586V80.4508H91V78.8307Z" fill="#1A1A18"/>
<path d="M86.5487 78.8276H85.8073V80.4508H86.5487V78.8276Z" fill="#1A1A18"/>
</svg>
