<svg width="152" height="143" viewBox="0 0 152 143" fill="none" xmlns="http://www.w3.org/2000/svg">
<path d="M5.07278 35.7357H0.00270933C-0.0551819 31.0649 0.815188 26.429 2.56337 22.0968C4.31155 17.7646 6.90278 13.8223 10.1869 10.4983C13.4709 7.17427 17.3825 4.53472 21.695 2.73261C26.0074 0.930508 30.6348 0.00169219 35.3091 2.31009e-06C39.9834 -0.00168757 44.6115 0.923782 48.9252 2.72277C53.2389 4.52176 57.1524 7.15848 60.4389 10.4801C63.7254 13.8017 66.3195 17.7422 68.0708 22.0731C69.8221 26.4041 70.6958 31.0393 70.6413 35.7101H65.5712C65.6216 31.7073 64.8759 27.7343 63.3776 24.0218C61.8792 20.3093 59.6579 16.9311 56.8426 14.0833C54.0274 11.2355 50.6742 8.97483 46.9776 7.43245C43.2811 5.89007 39.3149 5.0967 35.3091 5.09839C31.3033 5.10008 27.3377 5.8968 23.6425 7.4423C19.9473 8.9878 16.596 11.2513 13.7831 14.1015C10.9703 16.9516 8.75185 20.3317 7.2566 24.0455C5.76135 27.7593 5.01905 31.7329 5.07278 35.7357Z" fill="white"/>
<path d="M5.07789 35.6335H0.0078125V102.635H5.07789V35.6335Z" fill="white"/>
<path d="M70.6413 35.6386H65.5712V102.64H70.6413V35.6386Z" fill="white"/>
<path d="M85.5807 35.7204H80.5055C80.6132 26.4328 84.3796 17.5619 90.9883 11.0308C97.597 4.49977 106.515 0.834968 115.81 0.830936C125.104 0.826904 134.025 4.48397 140.64 11.0093C147.254 17.5346 151.028 26.4023 151.144 35.6898H146.074C146.07 27.6732 142.879 19.9865 137.204 14.3208C131.529 8.65507 123.834 5.47438 115.812 5.47844C107.79 5.4825 100.098 8.67099 94.4289 14.3425C88.7594 20.0139 85.5766 27.7038 85.5807 35.7204Z" fill="white"/>
<path d="M151.144 35.603H146.074V102.645H151.144V35.603Z" fill="white"/>
<path d="M85.5756 35.6131H80.5055V102.64H85.5756V35.6131Z" fill="white"/>
<path d="M37.8239 127.938C36.6369 127.938 35.4766 127.586 34.4898 126.927C33.5029 126.268 32.7339 125.331 32.2799 124.235C31.8259 123.139 31.7073 121.933 31.9393 120.77C32.1712 119.606 32.7432 118.538 33.5829 117.7C34.4225 116.861 35.4921 116.291 36.6564 116.06C37.8207 115.829 39.0273 115.948 40.1236 116.403C41.2199 116.858 42.1567 117.627 42.8154 118.614C43.4741 119.601 43.8252 120.76 43.8241 121.947C43.8228 123.536 43.19 125.06 42.0649 126.183C40.9398 127.307 39.4144 127.938 37.8239 127.938ZM37.8239 117.212C36.8828 117.212 35.9628 117.491 35.1803 118.013C34.3978 118.536 33.7879 119.278 33.4278 120.147C33.0676 121.016 32.9734 121.972 33.157 122.895C33.3406 123.817 33.7938 124.664 34.4593 125.329C35.1247 125.994 35.9726 126.447 36.8956 126.631C37.8186 126.814 38.7753 126.72 39.6448 126.36C40.5143 126 41.2574 125.391 41.7803 124.609C42.3031 123.827 42.5822 122.907 42.5822 121.967C42.5842 121.341 42.4626 120.721 42.2245 120.142C41.9863 119.563 41.6362 119.036 41.1943 118.593C40.7523 118.149 40.2271 117.797 39.6487 117.557C39.0704 117.316 38.4503 117.192 37.8239 117.191V117.212Z" fill="white"/>
<path d="M65.4435 127.943H57.1791V115.95H58.4108V126.712H65.4435V127.943Z" fill="white"/>
<path d="M0.232711 120.363V120.317C0.204169 119.729 0.295385 119.142 0.500827 118.59C0.706269 118.039 1.02166 117.535 1.42787 117.109C1.83409 116.682 2.32267 116.343 2.86399 116.111C3.40532 115.88 3.98811 115.76 4.57703 115.76C5.16595 115.76 5.74874 115.88 6.29007 116.111C6.83139 116.343 7.31997 116.682 7.72619 117.109C8.1324 117.535 8.44779 118.039 8.65323 118.59C8.85868 119.142 8.94989 119.729 8.92135 120.317H7.66916C7.68614 119.899 7.6184 119.482 7.47002 119.091C7.32163 118.7 7.09566 118.342 6.80567 118.04C6.51568 117.739 6.16765 117.499 5.78248 117.335C5.39731 117.171 4.98294 117.086 4.56425 117.086C4.14557 117.086 3.7312 117.171 3.34603 117.335C2.96086 117.499 2.61283 117.739 2.32284 118.04C2.03285 118.342 1.80687 118.7 1.65849 119.091C1.5101 119.482 1.44237 119.899 1.45934 120.317L0.232711 120.363Z" fill="white"/>
<path d="M1.47469 120.307H0.232727V127.902H1.47469V120.307Z" fill="white"/>
<path d="M8.92647 120.307H7.68451V127.902H8.92647V120.307Z" fill="white"/>
<path d="M17.9218 120.373L17.2983 120.338C17.3153 119.92 17.2475 119.502 17.0991 119.111C16.9507 118.72 16.7248 118.363 16.4348 118.061C16.1448 117.759 15.7968 117.519 15.4116 117.355C15.0264 117.191 14.6121 117.106 14.1934 117.106C13.7747 117.106 13.3603 117.191 12.9751 117.355C12.59 117.519 12.2419 117.759 11.952 118.061C11.662 118.363 11.436 118.72 11.2876 119.111C11.1392 119.502 11.0715 119.92 11.0885 120.338H9.8465C9.90063 119.223 10.382 118.171 11.1908 117.401C11.9995 116.631 13.0738 116.202 14.1908 116.202C15.3079 116.202 16.3821 116.631 17.1909 117.401C17.9997 118.171 18.481 119.223 18.5351 120.338L17.9218 120.373Z" fill="white"/>
<path d="M18.5401 120.328H17.2982V127.922H18.5401V120.328Z" fill="white"/>
<path d="M11.0885 120.328H9.8465V127.922H11.0885V120.328Z" fill="white"/>
<path d="M108.554 127.948H100.224V115.915H101.46V126.712H108.554V127.948Z" fill="white"/>
<path d="M108.524 121.283H100.822V122.519H108.524V121.283Z" fill="white"/>
<path d="M108.524 115.915H100.822V117.151H108.524V115.915Z" fill="white"/>
<path d="M151.011 115.915H142.685V117.161H151.011V115.915Z" fill="white"/>
<path d="M147.469 116.022H146.222V127.923H147.469V116.022Z" fill="white"/>
<path d="M14.9413 136.53L9.78949 136.539L9.79142 137.769L14.9433 137.761L14.9413 136.53Z" fill="white"/>
<path fill-rule="evenodd" clip-rule="evenodd" d="M14.0374 135.522C13.8395 134.898 13.5087 134.323 13.0675 133.838C12.6264 133.353 12.0855 132.969 11.4819 132.713C11.2222 132.598 10.9517 132.509 10.6744 132.448C10.324 132.367 9.96583 132.324 9.60619 132.32C8.35765 132.324 7.1614 132.821 6.27855 133.704C5.3957 134.586 4.89792 135.781 4.89388 137.029C4.88753 138.277 5.37641 139.476 6.2534 140.364C7.13597 141.246 8.33257 141.742 9.58063 141.743C10.8327 141.745 12.0342 141.25 12.9215 140.367C13.8087 139.484 14.3093 138.286 14.3134 137.034V136.524H15.5451V137.034C15.5445 137.815 15.3897 138.588 15.0897 139.309C14.7898 140.031 14.3504 140.685 13.7969 141.237C13.2434 141.788 12.5866 142.225 11.864 142.522C11.1414 142.819 10.3672 142.971 9.58575 142.969C8.80587 142.97 8.03352 142.817 7.3133 142.518C6.59308 142.219 5.93927 141.781 5.38964 141.228C4.27704 140.113 3.65211 138.603 3.65192 137.029C3.65462 135.456 4.28136 133.949 5.39469 132.837C6.50802 131.726 8.01705 131.101 9.59086 131.099C10.043 131.099 10.4939 131.148 10.935 131.247C11.2848 131.33 11.6267 131.443 11.9572 131.584C12.7855 131.937 13.5212 132.476 14.1072 133.159C14.6931 133.842 15.1135 134.651 15.3356 135.522H14.0374Z" fill="white"/>
<path d="M84.0321 121.722V120.516C84.4821 120.516 84.9137 120.338 85.232 120.02C85.5502 119.702 85.7289 119.27 85.7289 118.821C85.7289 118.371 85.5502 117.94 85.232 117.622C84.9137 117.304 84.4821 117.125 84.0321 117.125V115.915C84.4239 115.898 84.815 115.961 85.1819 116.1C85.5487 116.238 85.8837 116.449 86.1668 116.721C86.4498 116.992 86.6751 117.317 86.8289 117.678C86.9828 118.038 87.0621 118.426 87.0621 118.818C87.0621 119.21 86.9828 119.598 86.8289 119.958C86.6751 120.319 86.4498 120.645 86.1668 120.916C85.8837 121.187 85.5487 121.398 85.1819 121.537C84.815 121.675 84.4239 121.738 84.0321 121.722Z" fill="white"/>
<path d="M84.0321 115.915H79.2482V117.12H84.0321V115.915Z" fill="white"/>
<path d="M84.0321 120.516H79.2482V121.722H84.0321V120.516Z" fill="white"/>
<path d="M79.8717 115.92H78.64V127.933H79.8717V115.92Z" fill="white"/>
<path d="M84.0321 127.938V126.738C84.2611 126.75 84.4902 126.716 84.7055 126.637C84.9208 126.558 85.1177 126.436 85.2843 126.279C85.4508 126.121 85.5835 125.931 85.6741 125.721C85.7648 125.511 85.8115 125.284 85.8115 125.055C85.8115 124.825 85.7648 124.599 85.6741 124.388C85.5835 124.178 85.4508 123.988 85.2843 123.83C85.1177 123.673 84.9208 123.551 84.7055 123.472C84.4902 123.393 84.2611 123.359 84.0321 123.372V122.171C84.4212 122.155 84.8096 122.217 85.1739 122.355C85.5382 122.492 85.871 122.702 86.1521 122.972C86.4332 123.241 86.6569 123.564 86.8097 123.922C86.9625 124.28 87.0413 124.665 87.0413 125.055C87.0413 125.444 86.9625 125.829 86.8097 126.187C86.6569 126.545 86.4332 126.868 86.1521 127.138C85.871 127.407 85.5382 127.617 85.1739 127.754C84.8096 127.892 84.4212 127.954 84.0321 127.938Z" fill="white"/>
<path d="M84.0321 122.171H79.2482V123.372H84.0321V122.171Z" fill="white"/>
<path d="M84.0321 126.738H79.2482V127.938H84.0321V126.738Z" fill="white"/>
<path d="M65.423 143H57.1637V131.007H58.3954V141.769H65.423V143Z" fill="white"/>
<path d="M40.7217 135.364V135.328C40.7217 134.511 40.397 133.728 39.8191 133.15C39.2411 132.573 38.4572 132.248 37.6398 132.248C36.8225 132.248 36.0386 132.573 35.4606 133.15C34.8826 133.728 34.5579 134.511 34.5579 135.328H33.3262C33.3262 134.185 33.7806 133.089 34.5896 132.28C35.3986 131.472 36.4958 131.017 37.6398 131.017C38.7839 131.017 39.8811 131.472 40.69 132.28C41.499 133.089 41.9535 134.185 41.9535 135.328L40.7217 135.364Z" fill="white"/>
<path d="M41.9535 135.323H40.7218V142.862H41.9535V135.323Z" fill="white"/>
<path d="M34.5579 135.323H33.3262V142.862H34.5579V135.323Z" fill="white"/>
<path d="M40.8488 136.51L34.3374 136.521L34.3394 137.792L40.8508 137.782L40.8488 136.51Z" fill="white"/>
<path d="M86.9556 143H78.6963V131.007H79.928V141.769H86.9556V143Z" fill="white"/>
<path d="M108.549 143H100.218V130.972H101.455V141.764H108.549V143Z" fill="white"/>
<path d="M108.519 136.34H100.816V137.576H108.519V136.34Z" fill="white"/>
<path d="M108.519 130.972H100.816V132.208H108.519V130.972Z" fill="white"/>
<path d="M126.995 121.722V120.516C127.445 120.516 127.876 120.338 128.195 120.02C128.513 119.702 128.692 119.27 128.692 118.821C128.692 118.371 128.513 117.94 128.195 117.622C127.876 117.304 127.445 117.125 126.995 117.125V115.915C127.387 115.898 127.778 115.961 128.145 116.1C128.511 116.238 128.846 116.449 129.13 116.721C129.413 116.992 129.638 117.317 129.792 117.678C129.946 118.038 130.025 118.426 130.025 118.818C130.025 119.21 129.946 119.598 129.792 119.958C129.638 120.319 129.413 120.645 129.13 120.916C128.846 121.187 128.511 121.398 128.145 121.537C127.778 121.675 127.387 121.738 126.995 121.722Z" fill="white"/>
<path d="M127 115.915H122.216V117.12H127V115.915Z" fill="white"/>
<path d="M127 120.516H122.216V121.722H127V120.516Z" fill="white"/>
<path d="M122.835 115.92H121.603V127.948H122.835V115.92Z" fill="white"/>
<path d="M129.939 127.927H128.738V124.96C128.706 124.522 128.508 124.114 128.184 123.818C127.859 123.522 127.434 123.363 126.995 123.372V122.171C127.744 122.163 128.468 122.445 129.015 122.957C129.563 123.468 129.892 124.171 129.934 124.919C129.939 124.98 129.939 127.897 129.939 127.927Z" fill="white"/>
<path d="M127 122.171H122.216V123.372H127V122.171Z" fill="white"/>
<path d="M126.985 136.789V135.563C127.435 135.563 127.866 135.385 128.184 135.067C128.503 134.749 128.681 134.317 128.681 133.868C128.681 133.418 128.503 132.987 128.184 132.669C127.866 132.351 127.435 132.172 126.985 132.172V130.961C127.376 130.945 127.768 131.008 128.134 131.146C128.501 131.285 128.836 131.496 129.119 131.767C129.402 132.039 129.628 132.364 129.781 132.725C129.935 133.085 130.015 133.473 130.015 133.865C130.015 134.257 129.935 134.645 129.781 135.005C129.628 135.366 129.402 135.691 129.119 135.963C128.836 136.234 128.501 136.445 128.134 136.584C127.768 136.722 127.376 136.785 126.985 136.769V136.789Z" fill="white"/>
<path d="M126.985 130.961H122.201V132.167H126.985V130.961Z" fill="white"/>
<path d="M126.985 135.563H122.201V136.769H126.985V135.563Z" fill="white"/>
<path d="M122.824 130.967H121.593V143H122.824V130.967Z" fill="white"/>
<path d="M129.929 142.974H128.727V140.007C128.696 139.569 128.498 139.161 128.173 138.865C127.849 138.569 127.424 138.409 126.985 138.418V137.218C127.734 137.21 128.458 137.492 129.005 138.003C129.552 138.515 129.881 139.218 129.923 139.966C129.929 140.027 129.929 142.944 129.929 142.974Z" fill="white"/>
<path d="M126.985 137.218H122.201V138.419H126.985V137.218Z" fill="white"/>
<path d="M147.158 137.55H146.508V142.964H147.158V137.55Z" fill="white"/>
<path d="M146.876 137.969C145.732 137.968 144.635 137.512 143.826 136.703C143.017 135.894 142.563 134.797 142.563 133.653H143.795C143.795 134.47 144.119 135.253 144.697 135.831C145.275 136.408 146.059 136.733 146.876 136.733C147.694 136.733 148.478 136.408 149.056 135.831C149.634 135.253 149.958 134.47 149.958 133.653L151.19 133.622V133.653C151.189 134.796 150.734 135.893 149.926 136.702C149.117 137.51 148.021 137.966 146.876 137.969Z" fill="white"/>
<path d="M151.19 130.972H149.958V133.663H151.19V130.972Z" fill="white"/>
<path d="M143.795 130.967H142.563V133.663H143.795V130.967Z" fill="white"/>
</svg>
