<svg width="32" height="32" viewBox="0 0 32 32" fill="none" xmlns="http://www.w3.org/2000/svg">
<path d="M8.62603 14.439L16.5185 22.8214L24.411 14.439C25.1087 13.698 25.5008 12.6928 25.5008 11.6447C25.5008 10.5967 25.1087 9.59151 24.411 8.85041C24.0654 8.48345 23.6553 8.19237 23.2038 7.99377C22.7524 7.79518 22.2686 7.69296 21.7799 7.69296C20.7931 7.69296 19.8467 8.10931 19.1489 8.85041L16.5185 11.6441L13.8881 8.85173C13.1885 8.12057 12.2453 7.71262 11.2638 7.71674C10.2823 7.72086 9.34208 8.13672 8.64798 8.87373C7.95388 9.61074 7.5621 10.6092 7.55799 11.6516C7.55388 12.694 7.93776 13.6959 8.62603 14.439ZM15.6417 6.98665L16.5185 7.91787L17.3953 6.98665C17.9702 6.37071 18.654 5.88144 19.4074 5.54692C20.1608 5.21239 20.969 5.03921 21.7856 5.03731C22.6021 5.03541 23.411 5.20483 24.1658 5.53585C24.9206 5.86686 25.6064 6.35295 26.1838 6.96621C26.7612 7.57947 27.2189 8.30781 27.5306 9.10943C27.8423 9.91106 28.0018 10.7702 28 11.6374C27.9982 12.5047 27.8351 13.3631 27.5202 14.1632C27.2052 14.9634 26.7445 15.6896 26.1646 16.3002L17.3965 25.6137C17.2814 25.7362 17.1446 25.8333 16.994 25.8996C16.8435 25.9659 16.6821 26 16.5191 26C16.3561 26 16.1948 25.9659 16.0442 25.8996C15.8936 25.8333 15.7569 25.7362 15.6417 25.6137L6.87242 16.3015C6.28459 15.6929 5.8164 14.9664 5.495 14.1641C5.1736 13.3618 5.00539 12.4998 5.00013 11.6279C4.99487 10.7561 5.15266 9.89178 5.46436 9.08519C5.77605 8.27861 6.23544 7.54579 6.81588 6.92924C7.39632 6.31269 8.08625 5.82469 8.84565 5.49353C9.60506 5.16238 10.4188 4.99467 11.2397 5.00013C12.0606 5.00559 12.8723 5.18412 13.6278 5.52535C14.3832 5.86659 15.0673 6.36374 15.6404 6.98797L15.6417 6.98665Z" fill="#FF4823"/>
</svg>
