<svg width="32" height="32" viewBox="0 0 32 32" fill="none" xmlns="http://www.w3.org/2000/svg">
<path d="M8.4426 14.6089L8.44401 14.6104L16.3365 22.9927L16.5185 23.186L16.7005 22.9927L24.593 14.6104C25.3358 13.8214 25.7508 12.7544 25.7508 11.6447C25.7508 10.535 25.3358 9.46801 24.593 8.67903C24.225 8.28821 23.7873 7.97734 23.3045 7.76494C22.8216 7.55252 22.3035 7.44296 21.7799 7.44296C20.7218 7.44296 19.7102 7.88954 18.9669 8.67903L16.5184 11.2794L14.0701 8.6803L14.0701 8.6803L14.0687 8.67889C13.3234 7.89991 12.3151 7.46232 11.2627 7.46674C10.2103 7.47116 9.20541 7.91719 8.46599 8.70233C7.72703 9.48696 7.31234 10.5469 7.30799 11.6506C7.30364 12.7543 7.70994 13.8178 8.44261 14.6089L8.4426 14.6089ZM15.6381 7.35503L15.6416 7.35126L16.3365 8.08925L16.5185 8.28256L16.7005 8.08925L17.5773 7.15803L17.5781 7.15723C18.1305 6.56531 18.7868 6.09598 19.5088 5.77541C20.2308 5.45485 21.0046 5.28913 21.7861 5.28731C22.5676 5.28549 23.3422 5.44761 24.0654 5.7648C24.7887 6.08201 25.4469 6.54826 26.0018 7.13759C26.5567 7.72695 26.9973 8.42772 27.2976 9.20003C27.5979 9.97236 27.7517 10.8005 27.75 11.6369C27.7483 12.4733 27.591 13.3008 27.2875 14.0717C26.9841 14.8426 26.5406 15.5413 25.9833 16.128L25.9825 16.1288L17.2145 25.4423L17.2144 25.4424C17.1217 25.541 17.0124 25.6183 16.8933 25.6708C16.7742 25.7232 16.6471 25.75 16.5191 25.75C16.3912 25.75 16.2641 25.7232 16.1449 25.6708C16.0258 25.6183 15.9165 25.541 15.8238 25.4424L15.8237 25.4423L7.05443 16.1301L7.05444 16.1301L7.05224 16.1278C6.48737 15.543 6.0367 14.844 5.72707 14.0711C5.41743 13.2982 5.2552 12.4672 5.25012 11.6264C5.24505 10.7856 5.39724 9.95243 5.69755 9.17531C5.99785 8.39821 6.44009 7.69313 6.99791 7.10061C7.5557 6.50812 8.21787 6.04003 8.94558 5.72269C9.67325 5.40537 10.4524 5.2449 11.2381 5.25012C12.0237 5.25535 12.8009 5.42619 13.5249 5.75319C14.2488 6.08021 14.9055 6.55712 15.4563 7.15704L15.6381 7.35503Z" fill="black" stroke="white" stroke-width="0.5"/>
</svg>
