<svg width="32" height="32" viewBox="0 0 32 32" fill="none" xmlns="http://www.w3.org/2000/svg">
<g clip-path="url(#clip0_258_17)">
<path d="M7.89654 16.7701L14.7931 24.8992C15.3965 25.5766 16.1006 25.9153 16.9052 25.9153C17.6235 25.9153 18.2414 25.7036 18.7586 25.2802L24.75 20.3266C25.3247 19.8185 25.6552 19.1834 25.7414 18.4213C25.8276 17.7157 25.6121 17.0242 25.0948 16.3467L18.1983 8.21771C17.4511 7.25803 16.4741 6.65118 15.2672 6.39715L9.27585 5.04231C8.70113 4.87295 8.15516 4.99997 7.63792 5.42336L6.90516 6.05844C6.47412 6.36892 6.25861 6.87698 6.25861 7.58263L6.60343 13.6371C6.74711 14.8508 7.17815 15.8951 7.89654 16.7701ZM8.93102 6.77819L15.0086 8.21771C15.6408 8.35884 16.273 8.73989 16.9052 9.36086L23.8017 17.4899C24.0316 17.7157 24.1034 17.9697 24.0172 18.252C24.0172 18.4213 23.8879 18.6613 23.6293 18.9717L17.6379 23.9254C17.4368 24.0947 17.1925 24.1723 16.9052 24.1582C16.6178 24.1441 16.4023 24.0383 16.2586 23.8407L9.36205 15.7117C8.81608 15.0342 8.54309 14.3427 8.54309 13.6371L8.11205 7.41328L8.93102 6.77819ZM11.3879 9.7419C11.3879 9.99594 11.3017 10.2076 11.1293 10.377C10.9569 10.5463 10.7414 10.631 10.4827 10.631C10.2241 10.631 10.0086 10.5463 9.83619 10.377C9.66378 10.2076 9.57757 9.99594 9.57757 9.7419C9.57757 9.48787 9.66378 9.27618 9.83619 9.10682C10.0086 8.93747 10.2241 8.85279 10.4827 8.85279C10.7414 8.85279 10.9569 8.93747 11.1293 9.10682C11.3017 9.27618 11.3879 9.48787 11.3879 9.7419ZM11.8621 16.0504L20.3103 18.6754H20.6121C21.0144 18.6754 21.3161 18.4637 21.5172 18.0403C21.6034 17.8145 21.5891 17.5887 21.4741 17.3629C21.3592 17.1371 21.1868 16.9818 20.9569 16.8971L12.5086 14.2721C12.2787 14.1592 12.0417 14.1592 11.7974 14.2721C11.5531 14.385 11.3879 14.5544 11.3017 14.7802C11.1293 15.4294 11.3161 15.8528 11.8621 16.0504ZM18.7586 20.1149C18.7586 20.4818 18.6293 20.7994 18.3707 21.0675C18.1121 21.3357 17.7816 21.4697 17.3793 21.4697C16.977 21.4697 16.6465 21.3357 16.3879 21.0675C16.1293 20.7994 16 20.4818 16 20.1149C16 19.748 16.1365 19.4304 16.4095 19.1623C16.6825 18.8941 17.0057 18.76 17.3793 18.76C17.7529 18.76 18.0761 18.8941 18.3491 19.1623C18.6221 19.4304 18.7586 19.748 18.7586 20.1149ZM16 12.9173C16 13.2842 15.8635 13.6018 15.5905 13.8699C15.3175 14.1381 14.9942 14.2721 14.6207 14.2721C14.2471 14.2721 13.9238 14.1381 13.6508 13.8699C13.3779 13.6018 13.2414 13.2842 13.2414 12.9173C13.2414 12.5504 13.3707 12.2328 13.6293 11.9647C13.8879 11.6965 14.2184 11.5625 14.6207 11.5625C15.023 11.5625 15.3534 11.6965 15.6121 11.9647C15.8707 12.2328 16 12.5504 16 12.9173Z" fill="black"/>
</g>
<defs>
<clipPath id="clip0_258_17">
<rect width="20" height="21" fill="white" transform="translate(6 5)"/>
</clipPath>
</defs>
</svg>
